<?xml version='1.0' encoding='utf-8'?>
<svg xmlns="http://www.w3.org/2000/svg" xmlns:xlink="http://www.w3.org/1999/xlink" width="1024px" height="1024px" viewBox="0 0 1024 1024" version="1.1"><defs><linearGradient id="bg" x1="0" y1="0" x2="0" y2="1"><stop offset="0.00%" stop-color="#22384c" /><stop offset="100.00%" stop-color="#0b1f16" /></linearGradient><linearGradient id="droid" x1="0" y1="0" x2="0" y2="1"><stop offset="0.00%" stop-color="#4be49a" /><stop offset="100.00%" stop-color="#2bb673" /></linearGradient><linearGradient id="arrow" x1="0" y1="0" x2="0" y2="1"><stop offset="0.00%" stop-color="#ffffff" /><stop offset="100.00%" stop-color="#c9f0dd" /></linearGradient></defs><rect fill="url(#bg)" x="100" y="100" width="824" height="824" rx="186" ry="186" /><rect fill="none" stroke="#3ddc84" stroke-width="6" opacity="0.25" x="100" y="100" width="824" height="824" rx="186" ry="186" /><line stroke="#3ddc84" stroke-width="26" stroke-linecap="round" x1="400" y1="336" x2="348" y2="250" /><line stroke="#3ddc84" stroke-width="26" stroke-linecap="round" x1="624" y1="336" x2="676" y2="250" /><path fill="url(#droid)" d="M 226 606 A 286 286 0 0 1 798 606 L 226 606 Z" /><circle fill="#0b1f16" cx="398" cy="462" r="34" /><circle fill="#0b1f16" cx="626" cy="462" r="34" /><circle fill="#ffffff" cx="408" cy="452" r="10" /><circle fill="#ffffff" cx="636" cy="452" r="10" /><path fill="url(#arrow)" d="M 512 640 L 620 764 L 556 764 L 556 872 L 468 872 L 468 764 L 404 764 Z" /></svg>